<svg data-v-fde0c5aa="" xmlns="http://www.w3.org/2000/svg" viewBox="0 0 300 300" class="iconLeft"><!----><defs data-v-fde0c5aa=""><linearGradient data-v-fde0c5aa="" gradientTransform="rotate(25)" id="79e58b87-5bdd-44a6-9ee6-2eed846f0ecc" x1="0%" y1="0%" x2="100%" y2="0%"><stop data-v-fde0c5aa="" offset="0%" stop-color="#006678" stop-opacity="1"></stop><stop data-v-fde0c5aa="" offset="100%" stop-color="#4FA8FF" stop-opacity="1"></stop></linearGradient></defs><rect data-v-fde0c5aa="" fill="url(#79e58b87-5bdd-44a6-9ee6-2eed846f0ecc)" x="0" y="0" width="300px" height="300px" class="logo-background-square"></rect><defs data-v-fde0c5aa=""><!----></defs><g data-v-fde0c5aa="" id="626e7514-d76d-40bd-83b3-bacb0e2cd747" fill="#ffffff" transform="matrix(6.874234031367359,0,0,6.874234031367359,128.77087457016248,101.94910405518435)"><path d="M1.74 12.07L0.77 12.07L2.21 1.93L2.37 1.93L6.49 10.25L10.57 1.93L10.73 1.93L12.20 12.07L11.19 12.07L10.20 4.82L6.62 12.07L6.36 12.07L2.73 4.77L1.74 12.07ZM14.18 12.04L14.18 1.91L15.20 1.91L15.20 11.07L19.09 11.07L19.09 12.04L14.18 12.04Z"></path></g><defs data-v-fde0c5aa=""><!----></defs><g data-v-fde0c5aa="" id="640df671-8af4-4fd4-a70b-c43db4dc1acc" stroke="none" fill="#ffffff" transform="matrix(1.0710572344480467,0,0,1.0710572344480467,26.094464137620484,96.54728023322633)"><g clip-rule="evenodd"><path d="M12.983 10.59l17.018 88.223-5.872-59.049 29.021-1.892-.054-9.883L64.549 1 53.622 18.977z"></path><path d="M59.389 54.548l5.16-53.541-8.74 39.716-19.612 1.045 1.57 20.462-7.766 36.583 12.057-39.899z"></path><path d="M62.8 67.182l.549-10.453-15.979 3.755-.032 11.797-17.337 26.532 21.68-27.616zM65.711 62.394l14.841-4.731 1.509-12.532-15.899 2.095zM72.07 44.502l10.988-1.417 1.581-10.278-8.079-.373L64.549 1l8.43 30.967z"></path><path d="M87.413 31.294l1.256-9.506-9.544-2.694L64.549 1l14.483 22.437-.422 7z"></path></g></g><!----></svg>