<svg data-v-423bf9ae="" xmlns="http://www.w3.org/2000/svg" viewBox="0 0 211 107" class="iconLeft"><!----><defs data-v-423bf9ae=""><linearGradient data-v-423bf9ae="" gradientTransform="rotate(25)" id="80de818f-489a-4794-98eb-e0211ee45550" x1="0%" y1="0%" x2="100%" y2="0%"><stop data-v-423bf9ae="" offset="0%" style="stop-color: rgb(0, 102, 120); stop-opacity: 1;"></stop><stop data-v-423bf9ae="" offset="100%" style="stop-color: rgb(79, 168, 255); stop-opacity: 1;"></stop></linearGradient></defs><!----><g data-v-423bf9ae="" id="ec3bf78f-9521-4944-8ffa-39520d27aa91" fill="#ffffff" transform="matrix(5.9055118997155125,0,0,5.9055118997155125,97.70913559783376,11.872604037389557)"><path d="M1.74 12.07L0.77 12.07L2.21 1.93L2.37 1.93L6.49 10.25L10.57 1.93L10.73 1.93L12.20 12.07L11.19 12.07L10.20 4.82L6.62 12.07L6.36 12.07L2.73 4.77L1.74 12.07ZM14.18 12.04L14.18 1.91L15.20 1.91L15.20 11.07L19.09 11.07L19.09 12.04L14.18 12.04Z"></path></g><!----><g data-v-423bf9ae="" id="026daae1-9bcc-42d1-a3a0-6088a4e931de" transform="matrix(1.0868111504448785,0,0,1.0868111504448785,-13.255261890115804,-0.23894260335429607)" stroke="none" fill="#ffffff"><g clip-rule="evenodd"><path d="M12.983 10.59l17.018 88.223-5.872-59.049 29.021-1.892-.054-9.883L64.549 1 53.622 18.977z"></path><path d="M59.389 54.548l5.16-53.541-8.74 39.716-19.612 1.045 1.57 20.462-7.766 36.583 12.057-39.899z"></path><path d="M62.8 67.182l.549-10.453-15.979 3.755-.032 11.797-17.337 26.532 21.68-27.616zM65.711 62.394l14.841-4.731 1.509-12.532-15.899 2.095zM72.07 44.502l10.988-1.417 1.581-10.278-8.079-.373L64.549 1l8.43 30.967z"></path><path d="M87.413 31.294l1.256-9.506-9.544-2.694L64.549 1l14.483 22.437-.422 7z"></path></g></g><!----></svg>